<svg version="1.2" xmlns="http://www.w3.org/2000/svg" viewBox="0 0 1600 724" width="1600" height="724"><defs><clipPath clipPathUnits="userSpaceOnUse" id="cp1"><path d="m-906.26-7560.54h6343.8v8974.42h-6343.8z"/></clipPath><clipPath clipPathUnits="userSpaceOnUse" id="cp2"><path d="m-906.26-7560.54h6343.8v8974.42h-6343.8z"/></clipPath></defs><style>.a{fill:#ed1c2e}.b{fill:#68737a}</style><path class="a" d="m1515.5 497.5v195.6h84.5v26.4h-122.4v-222z"/><g clip-path="url(#cp1)"><path fill-rule="evenodd" class="a" d="m248 497.7c11.8 0 22.4 0.5 31 3.8 24.8 9.2 41.5 28.7 41.5 59.5 0 26.9-16.7 49.2-39.9 58.5l66 100.2h-46.9l-57.3-90.5h-39.2v90.5h-40.6v-222zm-44.9 105.8h27.3l8.6 0.1c25 0 38.9-13.8 38.9-42.1 0-16-4.6-41.2-36.2-41.2h-38.6z"/><path fill-rule="evenodd" class="a" d="m73.6 497.7c12.2 0 21.4-0.5 28.7 0.7 35.1 5.6 54.3 30.8 54.3 68.5 0 24.6-11.9 42.8-29.2 55.3-13.2 9.5-31.4 12.7-53.3 12.7h-34.1v84.8h-40v-222zm3.3 112.9c33.9-1.1 39.1-27.2 39.1-46 0-39-22.3-43.8-41.9-43.8h-34.1v89.8z"/><path class="a" d="m479.3 719.7c12.2-6.2 25.6-16.2 32.1-24.6h49.5c19.1 0 33.9-6.2 45.4-14.4 22-15.7 34.7-42.3 34.7-78.1 0-31.2-18.3-61.5-34.6-70.2-17.7-9.5-20.1-11.1-46.4-11.1h-39.8v116.5c0 24.9-5 42.5-20 57.4-18.3 18.2-46.1 28.8-75.6 28.8-62.4 0-99.5-29.1-99.5-81.1v-145.3h37.8v140.4c0 10.6 1 19.3 3 25.9 5.8 20.2 29.6 32.9 58.7 32.9 37 0 56.2-20.6 56.2-58.3v-140.9l93.4 0.1c19.7 0 36.7 2.6 49.7 8.4 35.9 16 59.9 48.8 59.9 99.2 0 55.9-33.5 114.4-124.2 114.4z"/></g><path class="a" d="m1220.1 497.5h39.4v221.9h-39.4z"/><path class="a" d="m1023.5 719.7h-31.9l-133.7-162.6v162.6h-175.5v-222h135.8v24.3h-97.2v69.9h92.5v25.7h-92.5v76h107.1v-195.9h33.5l132.3 163.6v-163.7h219.6v24.9h-72.2v196.9h-39.5v-196.9h-78.3z"/><path fill-rule="evenodd" class="a" d="m1385.3 497.5l93.7 221.9h-42.9l-23.8-58.9h-93.5l-24.8 58.9h-35.3l96.4-221.9zm-55.9 137.6h72.6l-36.7-88.4z"/><g clip-path="url(#cp2)"><path class="b" d="m688.5 3.7c5.4 0 4.2 8.2 15.7 8.2 6.6 0 7.4-3.2 15.1-3.2 22.4 0 30.6 27 46.2 27 7.1 0 7.7-4.8 15.2-4.8 2.8 0 8 1.6 10 3.8 2.1 2 6.5 5.8 17.7 36.2 1.3 3.4-0.5 4.7-2.2 4.7-1.7 0-5.2-1.6-13-9.8-4.5-4.6-8.2-2.5-27.6-14.6-9.1-5.7-17.9-14-27.6-17.6-9.9-3.6-26.2-5.1-32.4-6.6-8.1-1.8-21.1-8-21.1-17.4 0-3.2 1.8-5.9 4-5.9z"/><path class="b" d="m799 0c4.5 0 8.1 7.1 12.8 11.8 11.1 10.6 28.3 3.7 41.4 16.8 3.3 3.4 6 11.4 6 19.1 0 7.8-1.7 15.7-5.7 15.7-9.2 0-3.2-15-21.9-26.2-18.8-11.2-21.9-11.7-29.6-19.4-7.8-7.8-8.1-10.8-8.1-12.9 0-2.1 1.4-4.9 5.1-4.9z"/><path class="b" d="m883.7 35.1c4.6 0 3.2 6.5 8.4 10.7 5.1 4.3 8.4 2.9 15.6 10 3.2 3.2 4 5.3 4 6.2 0 0.9-1.8 12-13.3 12-2.5 0-4.5-0.5-6.3-4.3-2.8-5.5-1.5-13.3-7.4-20.2-5.2-5.9-5.8-6.5-5.8-9.9 0-3.4 3.2-4.5 4.8-4.5z"/><path class="a" d="m902.1 92.8c14.6 4.1 21.7 10 21.7 18.9 0 9.1-3.6 9.6-6.6 14-2.3 3.2-4.6 7.8-4.3 21.6 0 2.8-0.9 4.4-3 4.4-2 0-3.1-1.1-3.1-3.1 0-1.4 0.9-2.3 0.9-3.5 0-1.2 0.4-7.8-4.2-11.7-13.1-11.9-78.1-19.9-119.4-19.9-50.1 0-90.2 10.6-101.4 10.6-20.4 0-29.9-10.1-29.9-17.7 0-7.6 4.4-8.9 4.4-12.5 0-3.7-1.1-4.2-1.1-7.3 0-3.1 2.4-9.3 4.9-9.3 3.7 0 3.4 4.1 6.9 10.4 4.6 7.7 14.1 17.9 32.1 17.9 15.9 0 29.5-6.1 53.1-11.4 28.9-6.7 51.7-9.8 74.5-9.8 10.4 0 49.4 0.4 74.5 8.4z"/><path class="b" d="m906.8 174.3c3.1 0 5 0.7 5 2.8 0 2.1-3.2 2.1-5.1 2.5-1.9 0.3-14.4 2.5-19.8 11.3-0.9 1.4-0.1 2.7 1 3.2 1.3 0.6 15.4 7.5 15.4 12.8 0 5.1-10.9 10.2-14.1 10.2-3.4 0-4.6-4-4.6-4.7 0-1.4 3.1-3.1 3.1-4.5 0-1.3-2.6-3.3-4-3.3-1.7 0-2.3 0.8-3.2 4.4-0.8 3.6-4.1 18-4.8 26.9-0.7 9-3.5 31.8-3.5 34.6 0 3-0.4 11-6.9 15.6-6.3 4.4-12 7.5-12 7.5 0 0-2.3 1.6-3.2 1.6-0.9 0-2.9-2.1-5.5-4.2-2.6-2-5.3-2.2-7.1-2.2-3.3 0-9.8 5.2-14.6 5.2-4.8 0-14.6-5.3-14.6-8.4 0-1 1.9-1.8 2.4-1.8 2.1 0 5.9 2.6 10.5 2.6 4.6 0 8.7-4.1 14.8-4.1 3.5 0 11.4 1.7 17.7 1.7 6.3 0 8.8-1.6 9.8-3.4 1-1.9 3.1-4.4 3.1-11.6 0-7.2-4.6-31.5-4.6-46.2 0-14.9 2.7-27.8 10.1-35.2 7.4-7.4 23.3-13.3 34.7-13.3z"/><path class="b" d="m916 216.6c1.7 0 3.6 2.3 3.6 8.3 0 6.1-4.3 46.6-15.2 74.7-10.8 28.1-13.8 28.3-23.4 44.4-9.4 16.2-16.8 33.3-27.1 43.6-4 3.9-9.8 8.7-24 8.7-14 0-34.2-3-56.9-12.2-22.7-9.1-45.3-22.6-58.8-36.1-2-2-0.9-4 2.5-2 3.5 1.8 21.9 16.1 57.1 26.8 25.7 7.8 32.8 7.8 43.6 7.8 10.3 0 21.4 1.9 34.4-11.1 13-13 23.9-34.9 28.6-43.4 4.6-8.4 13.9-23.2 22.6-50.6 8.8-27.3 10.4-42.5 11.3-54.3 0.1-2.6 0.3-4.6 1.7-4.6z"/><path class="b" d="m827.9 305.5c5.2 0 9.2 7.2 14.7 7.2 5.4 0 7-6.1 10.3-6.1 3.2 0 4.1 7 5.3 9.4 1.2 2.5 1.9 3.8 1.9 4.4 0 0.7-1.3 1.7-2.6 1.7-1.2 0-3.8-2.3-9.7-2.3-4.3 0-7.7 2.8-8 3.4-0.2 0.7-1.1 0.5-1.9 0-1.8-1.3-5.5-7.2-11.7-7.2-3.4 0-7.7 2.1-12.3 4.8-4.6 2.9-8.1 4-12.1 4-3.6 0-8.4-1.4-8.4-3.9 0-1.4 1.9-2.2 3.5-2.2 3.6 0 7.1 0.8 15.1-3.8 5.5-3.3 11.5-9.4 15.9-9.4z"/><path class="b" d="m812.2 329.8c2.7 0 7.2 5.4 20.7 5.4 13.1 0 16.6-6.1 19.4-6.1 1.7 0 2 1.8 2 2.4 0 0.7-5.1 17.5-18.8 17.5-8 0-16.6-6.9-19.8-10-3.1-3.1-5.3-6.2-5.3-7.5 0-1.3 1.1-1.7 1.8-1.7z"/><path class="b" d="m788.7 186.9c9.4 0 30.2 2.1 30.2 7.6 0 3-9.4 0.2-16.5 0.2-7.3 0-7.9 0.4-7.9 0.9 0 0.5 0.1 0.9 0.7 1.4 0.6 0.5 5.4 5.7 5.4 7.1 0 5.6-14.4 11.2-17.8 11.2-1.9 0-5.7-2-5.7-4.5 0-1.7 7.5-3.6 7.5-5.4 0-1.8-4.3-5.5-8.3-5.5-4 0-16.2 8.6-17.9 8.6-1.6 0-2-1.1-2-2.5 0-1.2 1.1-3.5 1.1-4.7 0-3.9-2.7-3.5-2.7-6.6 0-1.7 2.2-4.6 14.2-6.2 12.1-1.6 15-1.6 19.7-1.6z"/><path class="b" d="m783.1 160.6c9.6 0 30.1 1.6 33.3 2.2 3.2 0.6 3.9 2.1 3.9 3 0 1.6-1.1 1.8-4.8 1.8-7 0-24.6 0-42.5 5.5-28.1 8.7-32.1 17-36.8 17-1.4 0-3.6-1.8-3.6-3.7 0-1.7 2.9-6 2.9-9.1 0-2.3-2.3-4.8-2.3-6.2 0-5.1 23.7-10.5 49.9-10.5z"/><path class="b" d="m1031.1 152c14.3 0 20.1 14 20.1 30.7 0 2.6-1.3 7-3.6 7-3.3 0 1-9.3-7.5-9.3-2.1 0-6 2.2-9.5 5.7-3.6 3.4-24.5 31.7-39.8 78.7-7.6 23.5-11 38.2-11 50.8 0 8.3 2.4 14.7 2.4 17.6 0 5.1-5.4 1.8-6.3 0.3-2.1-3.7-6-14-6-27.9 0-14 6-49.1 16.9-84.7 5.8-19.4 22.5-68.9 44.3-68.9z"/><path class="b" d="m989.4 378.9c1.8 0 3.2 0.9 3.2 2 0 1.8-6.9 7.7-10 11-4.9 5.2-6.3 13.6-10.4 13.6-1.4 0-2.2-1.6-2.2-2.8 0-1.2 0.6-2.2 0.6-3.1 0-4.1-5.4-3.1-5.4-6.3 0-2.6 7.7-7.6 11-9.7 3.2-2 10.3-4.7 13.2-4.7z"/><path class="b" d="m983.6 412.5c2.3 0 3.9 0.7 3.9 1.7 0 2.1-8.3 7-9.9 8.6-1.6 1.7-10.4 13.1-11.7 19.7-1.4 6.4-3.5 8.5-5.3 8.5-4 0-1.6-6.5-4.5-8.5-2.2-1.6-7.8-0.9-7.8-5.7 0-3.1 5.2-8.1 10-12.4 4.8-4.3 14.8-11.9 25.3-11.9z"/><path class="b" d="m949.7 350.4c2.2 0 3.8 1.1 4.8 3 1.1 1.8 0.6 3 2.4 4.7 1.8 1.8 8.3 2.8 8.3 5.9 0 3-3.4 3-5.2 4.3-1.8 1.2-6.4 3.2-10 9.4-3.5 6.3-5.6 14.4-6.3 25.6-0.7 11.1-4.3 22.1-10 31.4-6 10.1-15.1 17.9-20.2 26.2-4.1 7-2.7 14.8-7.1 14.8-4.2 0-4.8-11.9-4.8-16 0-4.2 1-18.3 11.9-28.6 12.2-11.4 21.9-11.9 21.9-30.3 0-11.5-1.4-15.2-1.4-22.2 0-7.1 2.5-28.2 15.7-28.2z"/><path class="a" d="m471.4 96.9c7.1 0-0.8 2.9 10.5 14.2 5.4 5.4 8.5 7.7 21 7.7 7.4 0 18.2-1.7 45.4-13.9 10.7-4.8 27.8-10 40.3-10 15.8 0 28.3 7.8 37.1 14.2 8.8 6.5 19.3 15.5 23.9 19.1 4.7 3.7 11.6 7.8 14.3 8.8 2.6 1.1 3.1 2.5 2.3 4.7-0.8 2-3.9 6.6-4.6 7.7-0.8 1-3.9 2.6-5.7 3.3-1.8 0.8-8.8 3.6-17.4 10.1-8.4 6.5-22.7 14.2-39.9 14.2-17.4 0-43.9-7-58.6-7-6.2 0-15.3 3.4-21.7 9.8-2.4 2.5-4.5 7.1-6.2 8.8-1.7 1.7-7.2 5.2-9.2 5.2-2.1 0-5.7-1.3-5.7-3.3 0-3.9 8.5-5.5 8.5-12.2 0-6.7-2.1-7-2.1-10.1 0-3.1 2.5-8.6 6.4-12.6 8.5-8.4 30.3-13.5 49.9-13.5 14.2 0 41.8 6.2 60.6 6.2 8 0 14.2-1.2 17.8-2.8 5-2.2 3.9-5 1.6-5-2 0-1.8 1-7.2 1-4.9 0-16.4-2.8-26.3-9.3-9.7-6.5-25.4-15.4-40.5-15.4-15.2 0-26 5.3-30.6 7.2-11.2 4.2-37.2 19.2-51.1 19.2-13.9 0-30.1-6.9-30.1-18.7 0-11.9 11.7-11 11.7-18.1 0-1.2-0.6-2-0.6-3.5 0-1.3 1.5-6 6.2-6z"/><path class="b" d="m642.5 198.3c3 0 2.7 3.3 4.6 5.5 1.9 2.2 2.7-0.6 5.5 2.4 2.8 2.9 1.4 4.5 3.3 6.2 1.8 1.8 4.9 1.6 5 3.1 0.5 6.4-2.5 16.5-2.5 32 0 10.9 1.9 23.4 5.7 34.4 1.5 4.6-1.8 5.4-3.4 2.2-11.2-21-21.4-51.8-21.4-75.8 0-5.8 0.9-10 3.2-10z"/><path class="b" d="m627.9 221.3c1.5 0 2.2 0.9 2.2 2.6 0 1.7-5 17.9-12.4 27.5-7.3 9.5-18.9 22.1-23.1 22.1-1.9 0-1.9-2.3-2.3-3-0.4-0.8-1.8-2.6 1-4.9 2.9-2.3 3.2-3.6 3.2-5.1 0-1.6-1.2-3.7-1.2-5 0-1.3 1.1-4.3 2.9-5.4 1.8-1 13-6.7 19.3-14.3 6.3-7.7 8.2-14.5 10.4-14.5z"/><path fill-rule="evenodd" class="b" d="m668.8 340.3c0 12.4-10.3 23.3-25.6 32.7-3.3 1.9-6.6 3.8-10 5.4-0.9 7-1.7 13.2-2.4 18.3-3.1 22.7-9.5 55.2-13.1 55.2-3.6 0-3.9-16.8-4.5-24-0.3-4.4-1-22.6-1.6-38.5-2.6 1.6-4.9 3.4-6.9 5.2-8.1 8.2-10 14.4-10 20.2 0 5.6 4.6 14.7 4.6 20.1 0 5.4-3.8 14.4-8.5 14.4-3.9 0-0.8-4.8-0.8-9.5 0-12.2-15.7-11.4-15.7-29.2 0-4.8 0.8-9 8-16.2 5-5 19.9-13.2 28.9-17.9-0.2-4.6-0.2-8.4-0.2-10.8 0-7.4 1.5-28.4 2.9-44.8-8.7-0.3-17.9-0.1-25.9-8.1-3.3-3.2-6.2-8.3-6.2-11.6 0-3.4 2.5-6.2 15.7-6.2 4.7 0 10.6 0.4 19.1 3 2.3-13.6 8.2-39.4 13.5-39.4 3.5 0 9.2 16.8 9.2 43 0 2 0 3.8 0 5.9 15.4 7.7 29.5 17.6 29.5 32.8zm-17.3 4.8c0-9.4-5.7-13.9-13.3-17.3-0.9 12.5-2.3 26.1-3.7 38.6 4.7-2.5 17-10.2 17-21.3z"/></g></svg>