<svg width="144" height="40" viewBox="0 0 144 40" fill="none" xmlns="http://www.w3.org/2000/svg">
<g clip-path="url(#clip0_4863_3412)">
<path fill-rule="evenodd" clip-rule="evenodd" d="M140.107 18.4425L136.728 17.7334C135.743 17.534 135.117 16.7587 135.117 15.8502C135.117 14.4321 136.012 13.1025 138.205 13.1025C139.659 13.1025 141.136 13.9446 142.478 15.5177L143.329 13.0138C141.382 12.3492 139.525 12.1276 137.891 12.1276C134.311 12.1276 132.297 14.0774 132.297 16.4927C132.297 18.0881 133.394 19.7942 135.766 20.3037L139.212 21.0572C140.42 21.323 141.046 22.2536 141.046 23.2064C141.046 24.6024 140.062 26.3306 137.712 26.3306C135.788 26.3306 134.289 25.5774 132.901 23.9156L132.051 26.4193C133.998 27.0843 135.855 27.3055 137.824 27.3055C141.539 27.3055 144 25.5107 144 22.719C144 20.7248 142.971 19.0407 140.107 18.4425L140.107 18.4425ZM126.793 22.0098C126.793 24.7131 125.115 26.3085 122.743 26.3085C119.969 26.3085 118.894 24.2257 118.894 20.4367V19.1516C118.894 15.296 119.969 13.1247 122.766 13.1247C125.137 13.1247 126.793 14.7199 126.793 17.4232V22.0098ZM129.68 6.56606L126.077 7.60738C126.502 8.38291 126.793 9.95602 126.793 10.9976V13.7053C125.706 12.6867 124.172 12.1276 122.407 12.1276C118.022 12.1276 115.627 14.6535 115.627 19.1517V20.4367C115.627 24.8459 118.156 27.3055 122.743 27.3055C124.451 27.3055 125.948 26.6964 126.988 25.5904C127.081 26.0254 127.221 26.4587 127.442 26.9067H130.351C129.903 25.9982 129.68 24.6909 129.68 23.3394L129.68 6.56606ZM113.205 17.4012C113.205 13.9003 111.035 12.1276 107.813 12.1276C105.888 12.1276 104.098 12.6816 102.8 13.9446C102.733 13.4792 102.622 13.0138 102.442 12.5264H99.3993C99.8468 13.4349 100.071 14.7422 100.071 16.0939V23.3395C100.071 24.6909 99.8468 25.9982 99.3993 26.9067H103.628C103.181 25.9982 102.957 24.6909 102.957 23.3395L102.98 17.4233C102.98 14.853 104.456 13.1248 107.007 13.1248C109.357 13.1248 110.297 14.7199 110.297 17.4012L110.319 23.3395C110.319 24.6909 110.095 25.9982 109.648 26.9067H113.877C113.429 25.9982 113.205 24.6909 113.205 23.3395L113.205 17.4012ZM96.5265 12.5264H92.9463C93.3716 13.302 93.6625 14.8753 93.6625 15.9166L93.6399 22.0099C93.6399 24.5802 92.1631 26.3086 89.59 26.3086C87.3973 26.3086 86.3232 24.7132 86.3232 22.0099V12.5264H83.0113C83.2575 13.302 83.4366 14.8753 83.4366 15.9166V22.0099C83.4366 25.5108 85.8532 27.3056 88.7845 27.3056C90.7691 27.3056 92.5888 26.7 93.8094 25.4681C93.9013 25.9442 94.0474 26.417 94.2891 26.9068H97.1979C96.7504 25.9983 96.5265 24.691 96.5265 23.3395L96.5265 12.5264ZM80.2546 7.43032C80.9483 7.43032 81.7987 8.2279 82.4251 9.66823L83.5887 6.80984C82.6937 6.56611 81.8658 6.43311 81.0826 6.43311C78.196 6.43311 76.1599 8.11718 76.1599 11.3966V12.5264H74.2356V13.5013H76.1599V23.3395C76.1599 24.6909 75.936 25.9983 75.4885 26.9068H79.7176C79.2701 25.9983 79.0465 24.6909 79.0465 23.3395V13.5013H81.5301V12.5264H79.0465V9.8233C79.0465 8.20561 79.5835 7.43032 80.2546 7.43032H80.2546ZM72.2139 6.56606L68.6114 7.60738C69.0367 8.38291 69.3276 9.95602 69.3276 10.9976V23.3394C69.3276 24.6909 69.1037 25.9982 68.6562 26.9067H72.8853C72.4378 25.9982 72.2139 24.6909 72.2139 23.3394L72.2139 6.56606ZM65.6034 6.56606L62.0007 7.60738C62.4259 8.38291 62.7168 9.95602 62.7168 10.9976V23.3394C62.7168 24.6909 62.493 25.9982 62.0455 26.9067H66.2746C65.8271 25.9982 65.6034 24.6909 65.6034 23.3394L65.6034 6.56606ZM56.7486 21.8769C56.7486 23.5833 56.055 26.3087 52.833 26.3087C51.2889 26.3087 50.1478 25.09 50.1478 22.9628V22.3203C50.1478 20.3261 51.4232 19.1518 53.1684 19.1518H56.7487L56.7486 21.8769ZM59.6129 17.1795C59.5905 13.7673 57.3082 12.1276 53.9741 12.1276C52.1393 12.1276 49.9911 12.6153 47.7312 13.59L48.4918 16.5147C50.0582 14.2768 52.0273 13.1025 53.6609 13.1025C55.4061 13.1025 56.7486 14.4321 56.7486 17.1795V18.1545H53.1684C49.3868 18.1545 46.9032 19.7055 46.9032 22.3202V22.9627C46.9032 25.7104 49.2527 27.3055 52.833 27.3055C54.9286 27.3055 56.1038 26.5609 56.9113 25.495C57.0091 25.9622 57.1605 26.426 57.3977 26.9067H60.3066C59.8591 25.9982 59.6352 24.6909 59.6352 23.3395L59.6129 17.1795Z" fill="#5f5f5b"/>
<path fill-rule="evenodd" clip-rule="evenodd" d="M39.7596 19.6856C39.7596 30.5577 30.8591 39.3712 19.8798 39.3712C8.90051 39.3712 0 30.5577 0 19.6856C0 8.81357 8.9005 0 19.8798 0C30.8591 0 39.7596 8.81357 39.7596 19.6856Z" fill="#E7214F"/>
<path fill-rule="evenodd" clip-rule="evenodd" d="M5.87781 26.9069H16.8287L11.3868 17.319L5.87781 26.9069ZM19.0838 26.9069H22.8253V12.5265H19.0838V26.9069ZM27.2333 26.907H30.9748V8.47998H27.2333V26.907Z" fill="#FEFEFE"/>
</g>
<defs>
<clipPath id="clip0_4863_3412">
<rect width="144" height="39.3712" fill="white"/>
</clipPath>
</defs>
</svg>
